%TF.GenerationSoftware,KiCad,Pcbnew,9.0.2*%
%TF.CreationDate,2025-12-09T17:01:46+01:00*%
%TF.ProjectId,datalogger,64617461-6c6f-4676-9765-722e6b696361,rev?*%
%TF.SameCoordinates,Original*%
%TF.FileFunction,Soldermask,Top*%
%TF.FilePolarity,Negative*%
%FSLAX46Y46*%
G04 Gerber Fmt 4.6, Leading zero omitted, Abs format (unit mm)*
G04 Created by KiCad (PCBNEW 9.0.2) date 2025-12-09 17:01:46*
%MOMM*%
%LPD*%
G01*
G04 APERTURE LIST*
G04 Aperture macros list*
%AMRoundRect*
0 Rectangle with rounded corners*
0 $1 Rounding radius*
0 $2 $3 $4 $5 $6 $7 $8 $9 X,Y pos of 4 corners*
0 Add a 4 corners polygon primitive as box body*
4,1,4,$2,$3,$4,$5,$6,$7,$8,$9,$2,$3,0*
0 Add four circle primitives for the rounded corners*
1,1,$1+$1,$2,$3*
1,1,$1+$1,$4,$5*
1,1,$1+$1,$6,$7*
1,1,$1+$1,$8,$9*
0 Add four rect primitives between the rounded corners*
20,1,$1+$1,$2,$3,$4,$5,0*
20,1,$1+$1,$4,$5,$6,$7,0*
20,1,$1+$1,$6,$7,$8,$9,0*
20,1,$1+$1,$8,$9,$2,$3,0*%
G04 Aperture macros list end*
%ADD10C,0.010000*%
%ADD11RoundRect,0.225000X0.225000X0.250000X-0.225000X0.250000X-0.225000X-0.250000X0.225000X-0.250000X0*%
%ADD12R,3.350000X3.350000*%
%ADD13RoundRect,0.062500X0.062500X0.337500X-0.062500X0.337500X-0.062500X-0.337500X0.062500X-0.337500X0*%
%ADD14RoundRect,0.062500X0.337500X0.062500X-0.337500X0.062500X-0.337500X-0.062500X0.337500X-0.062500X0*%
%ADD15RoundRect,0.135000X-0.135000X-0.185000X0.135000X-0.185000X0.135000X0.185000X-0.135000X0.185000X0*%
%ADD16RoundRect,0.135000X0.135000X0.185000X-0.135000X0.185000X-0.135000X-0.185000X0.135000X-0.185000X0*%
%ADD17C,0.800000*%
%ADD18C,5.000000*%
%ADD19R,0.500000X1.050000*%
%ADD20RoundRect,0.102000X0.400000X0.200000X-0.400000X0.200000X-0.400000X-0.200000X0.400000X-0.200000X0*%
%ADD21RoundRect,0.102000X0.200000X0.400000X-0.200000X0.400000X-0.200000X-0.400000X0.200000X-0.400000X0*%
%ADD22RoundRect,0.102000X0.725000X0.725000X-0.725000X0.725000X-0.725000X-0.725000X0.725000X-0.725000X0*%
%ADD23RoundRect,0.102000X0.350000X0.350000X-0.350000X0.350000X-0.350000X-0.350000X0.350000X-0.350000X0*%
%ADD24RoundRect,0.140000X-0.140000X-0.170000X0.140000X-0.170000X0.140000X0.170000X-0.140000X0.170000X0*%
%ADD25RoundRect,0.135000X0.185000X-0.135000X0.185000X0.135000X-0.185000X0.135000X-0.185000X-0.135000X0*%
%ADD26RoundRect,0.140000X0.170000X-0.140000X0.170000X0.140000X-0.170000X0.140000X-0.170000X-0.140000X0*%
%ADD27RoundRect,0.102000X-0.475000X1.075000X-0.475000X-1.075000X0.475000X-1.075000X0.475000X1.075000X0*%
%ADD28RoundRect,0.102000X-1.625000X1.075000X-1.625000X-1.075000X1.625000X-1.075000X1.625000X1.075000X0*%
%ADD29RoundRect,0.225000X0.250000X-0.225000X0.250000X0.225000X-0.250000X0.225000X-0.250000X-0.225000X0*%
%ADD30RoundRect,0.055000X0.095000X-0.055000X0.095000X0.055000X-0.095000X0.055000X-0.095000X-0.055000X0*%
%ADD31C,0.650000*%
%ADD32RoundRect,0.102000X0.300000X0.575000X-0.300000X0.575000X-0.300000X-0.575000X0.300000X-0.575000X0*%
%ADD33RoundRect,0.102000X0.150000X0.575000X-0.150000X0.575000X-0.150000X-0.575000X0.150000X-0.575000X0*%
%ADD34RoundRect,0.102000X0.775000X0.625000X-0.775000X0.625000X-0.775000X-0.625000X0.775000X-0.625000X0*%
%ADD35RoundRect,0.102000X0.775000X0.750000X-0.775000X0.750000X-0.775000X-0.750000X0.775000X-0.750000X0*%
%ADD36RoundRect,0.140000X0.140000X0.170000X-0.140000X0.170000X-0.140000X-0.170000X0.140000X-0.170000X0*%
%ADD37R,0.350000X0.500000*%
%ADD38RoundRect,0.225000X-0.225000X-0.250000X0.225000X-0.250000X0.225000X0.250000X-0.225000X0.250000X0*%
%ADD39C,1.000000*%
%ADD40RoundRect,0.102000X-0.800000X0.350000X-0.800000X-0.350000X0.800000X-0.350000X0.800000X0.350000X0*%
%ADD41RoundRect,0.102000X-0.900000X0.600000X-0.900000X-0.600000X0.900000X-0.600000X0.900000X0.600000X0*%
%ADD42RoundRect,0.102000X-0.750000X0.800000X-0.750000X-0.800000X0.750000X-0.800000X0.750000X0.800000X0*%
%ADD43RoundRect,0.102000X-1.100000X0.600000X-1.100000X-0.600000X1.100000X-0.600000X1.100000X0.600000X0*%
%ADD44RoundRect,0.135000X-0.185000X0.135000X-0.185000X-0.135000X0.185000X-0.135000X0.185000X0.135000X0*%
G04 APERTURE END LIST*
D10*
%TO.C,U3*%
X162900000Y-100340000D02*
X162240000Y-101000000D01*
X161250000Y-101000000D01*
X161250000Y-99350000D01*
X162900000Y-99350000D01*
X162900000Y-100340000D01*
G36*
X162900000Y-100340000D02*
G01*
X162240000Y-101000000D01*
X161250000Y-101000000D01*
X161250000Y-99350000D01*
X162900000Y-99350000D01*
X162900000Y-100340000D01*
G37*
%TD*%
D11*
%TO.C,C1*%
X154775000Y-62500000D03*
X153225000Y-62500000D03*
%TD*%
D12*
%TO.C,U2*%
X149000000Y-65000000D03*
D13*
X150500000Y-67450000D03*
X150000000Y-67450000D03*
X149500000Y-67450000D03*
X149000000Y-67450000D03*
X148500000Y-67450000D03*
X148000000Y-67450000D03*
X147500000Y-67450000D03*
D14*
X146550000Y-66500000D03*
X146550000Y-66000000D03*
X146550000Y-65500000D03*
X146550000Y-65000000D03*
X146550000Y-64500000D03*
X146550000Y-64000000D03*
X146550000Y-63500000D03*
D13*
X147500000Y-62550000D03*
X148000000Y-62550000D03*
X148500000Y-62550000D03*
X149000000Y-62550000D03*
X149500000Y-62550000D03*
X150000000Y-62550000D03*
X150500000Y-62550000D03*
D14*
X151450000Y-63500000D03*
X151450000Y-64000000D03*
X151450000Y-64500000D03*
X151450000Y-65000000D03*
X151450000Y-65500000D03*
X151450000Y-66000000D03*
X151450000Y-66500000D03*
%TD*%
D15*
%TO.C,R16*%
X162500000Y-73500000D03*
X163520000Y-73500000D03*
%TD*%
D16*
%TO.C,R15*%
X163530000Y-79000000D03*
X162510000Y-79000000D03*
%TD*%
D17*
%TO.C,H4*%
X146625000Y-100875000D03*
X147174175Y-99549175D03*
X147174175Y-102200825D03*
X148500000Y-99000000D03*
D18*
X148500000Y-100875000D03*
D17*
X148500000Y-102750000D03*
X149825825Y-99549175D03*
X149825825Y-102200825D03*
X150375000Y-100875000D03*
%TD*%
%TO.C,H3*%
X169799175Y-101325825D03*
X170348350Y-100000000D03*
X170348350Y-102651650D03*
X171674175Y-99450825D03*
D18*
X171674175Y-101325825D03*
D17*
X171674175Y-103200825D03*
X173000000Y-100000000D03*
X173000000Y-102651650D03*
X173549175Y-101325825D03*
%TD*%
%TO.C,H2*%
X146625000Y-52875000D03*
X147174175Y-51549175D03*
X147174175Y-54200825D03*
X148500000Y-51000000D03*
D18*
X148500000Y-52875000D03*
D17*
X148500000Y-54750000D03*
X149825825Y-51549175D03*
X149825825Y-54200825D03*
X150375000Y-52875000D03*
%TD*%
%TO.C,H1*%
X169625000Y-52875000D03*
X170174175Y-51549175D03*
X170174175Y-54200825D03*
X171500000Y-51000000D03*
D18*
X171500000Y-52875000D03*
D17*
X171500000Y-54750000D03*
X172825825Y-51549175D03*
X172825825Y-54200825D03*
X173375000Y-52875000D03*
%TD*%
D19*
%TO.C,Q2*%
X161200000Y-68100000D03*
X162500000Y-68100000D03*
X161850000Y-66000000D03*
%TD*%
D16*
%TO.C,R17*%
X163520000Y-78000000D03*
X162500000Y-78000000D03*
%TD*%
D20*
%TO.C,U3*%
X166000000Y-102200000D03*
X166000000Y-101400000D03*
X166000000Y-100600000D03*
X166000000Y-99800000D03*
X166000000Y-99000000D03*
X166000000Y-98200000D03*
X166000000Y-97400000D03*
X166000000Y-96600000D03*
X166000000Y-95800000D03*
X166000000Y-95000000D03*
X166000000Y-94200000D03*
D21*
X164900000Y-93300000D03*
X164100000Y-93300000D03*
X163300000Y-93300000D03*
X162500000Y-93300000D03*
X161700000Y-93300000D03*
X160900000Y-93300000D03*
X160100000Y-93300000D03*
X159300000Y-93300000D03*
X158500000Y-93300000D03*
X157700000Y-93300000D03*
X156900000Y-93300000D03*
X156100000Y-93300000D03*
X155300000Y-93300000D03*
D20*
X154200000Y-94200000D03*
X154200000Y-95000000D03*
X154200000Y-95800000D03*
X154200000Y-96600000D03*
X154200000Y-97400000D03*
X154200000Y-98200000D03*
X154200000Y-99000000D03*
X154200000Y-99800000D03*
X154200000Y-100600000D03*
X154200000Y-101400000D03*
X154200000Y-102200000D03*
D21*
X155300000Y-103100000D03*
X156100000Y-103100000D03*
X156900000Y-103100000D03*
X157700000Y-103100000D03*
X158500000Y-103100000D03*
X159300000Y-103100000D03*
X160100000Y-103100000D03*
X160900000Y-103100000D03*
X161700000Y-103100000D03*
X162500000Y-103100000D03*
X163300000Y-103100000D03*
X164100000Y-103100000D03*
X164900000Y-103100000D03*
D22*
X160100000Y-100175000D03*
X158125000Y-100175000D03*
X158125000Y-98200000D03*
X158125000Y-96225000D03*
X160100000Y-96225000D03*
X162075000Y-96225000D03*
X162075000Y-98200000D03*
X160100000Y-98200000D03*
D23*
X154150000Y-103150000D03*
X154150000Y-93250000D03*
X166050000Y-93250000D03*
X166050000Y-103150000D03*
%TD*%
D24*
%TO.C,C4*%
X171040000Y-57000000D03*
X172000000Y-57000000D03*
%TD*%
%TO.C,C8*%
X167520000Y-99500000D03*
X168480000Y-99500000D03*
%TD*%
D19*
%TO.C,Q1*%
X158200000Y-68100000D03*
X159500000Y-68100000D03*
X158850000Y-66000000D03*
%TD*%
D16*
%TO.C,R18*%
X163520000Y-76000000D03*
X162500000Y-76000000D03*
%TD*%
D25*
%TO.C,R9*%
X169000000Y-91510000D03*
X169000000Y-90490000D03*
%TD*%
D26*
%TO.C,C7*%
X171000000Y-91480000D03*
X171000000Y-90520000D03*
%TD*%
D15*
%TO.C,R6*%
X163990000Y-65500000D03*
X165010000Y-65500000D03*
%TD*%
D24*
%TO.C,C3*%
X165020000Y-58000000D03*
X165980000Y-58000000D03*
%TD*%
D25*
%TO.C,R1*%
X155000000Y-59500000D03*
X155000000Y-58480000D03*
%TD*%
D27*
%TO.C,U4*%
X173300000Y-59100000D03*
X171000000Y-59100000D03*
X168700000Y-59100000D03*
D28*
X171000000Y-64900000D03*
%TD*%
D29*
%TO.C,C5*%
X168000000Y-102275000D03*
X168000000Y-100725000D03*
%TD*%
D30*
%TO.C,D3*%
X156500000Y-58870000D03*
X156500000Y-58500000D03*
%TD*%
D16*
%TO.C,R5*%
X154000000Y-66500000D03*
X152980000Y-66500000D03*
%TD*%
D31*
%TO.C,J2*%
X163500000Y-55150000D03*
X157500000Y-55150000D03*
D32*
X163700000Y-56425000D03*
X162900000Y-56425000D03*
D33*
X161750000Y-56425000D03*
X160750000Y-56425000D03*
X160250000Y-56425000D03*
X159250000Y-56425000D03*
D32*
X157300000Y-56425000D03*
X158100000Y-56425000D03*
D33*
X158750000Y-56425000D03*
X159750000Y-56425000D03*
X161250000Y-56425000D03*
X162250000Y-56425000D03*
D34*
X165595000Y-55775000D03*
X155405000Y-55775000D03*
D35*
X165595000Y-51850000D03*
X155405000Y-51850000D03*
%TD*%
D15*
%TO.C,R7*%
X163990000Y-66500000D03*
X165010000Y-66500000D03*
%TD*%
D30*
%TO.C,D1*%
X158000000Y-58870000D03*
X158000000Y-58500000D03*
%TD*%
D24*
%TO.C,C10*%
X162500000Y-75000000D03*
X163460000Y-75000000D03*
%TD*%
D26*
%TO.C,C6*%
X172000000Y-91480000D03*
X172000000Y-90520000D03*
%TD*%
D16*
%TO.C,R3*%
X149000000Y-60500000D03*
X147980000Y-60500000D03*
%TD*%
D25*
%TO.C,R14*%
X170000000Y-91510000D03*
X170000000Y-90490000D03*
%TD*%
D36*
%TO.C,C2*%
X153980000Y-64000000D03*
X153020000Y-64000000D03*
%TD*%
D16*
%TO.C,R2*%
X151020000Y-60500000D03*
X150000000Y-60500000D03*
%TD*%
D30*
%TO.C,D2*%
X159500000Y-58870000D03*
X159500000Y-58500000D03*
%TD*%
D37*
%TO.C,U1*%
X172475000Y-94525000D03*
X171825000Y-94525000D03*
X171175000Y-94525000D03*
X170525000Y-94525000D03*
X170525000Y-92475000D03*
X171175000Y-92475000D03*
X171825000Y-92475000D03*
X172475000Y-92475000D03*
%TD*%
D25*
%TO.C,R11*%
X160000000Y-91010000D03*
X160000000Y-89990000D03*
%TD*%
%TO.C,R13*%
X158500000Y-91020000D03*
X158500000Y-90000000D03*
%TD*%
D38*
%TO.C,C9*%
X167725000Y-97000000D03*
X169275000Y-97000000D03*
%TD*%
D39*
%TO.C,J1*%
X149250000Y-73050000D03*
X149250000Y-81050000D03*
D40*
X160250000Y-80250000D03*
X160250000Y-79150000D03*
X160250000Y-78050000D03*
X160250000Y-76950000D03*
X160250000Y-75850000D03*
X160250000Y-74750000D03*
X160250000Y-73650000D03*
X160250000Y-72550000D03*
X160250000Y-71450000D03*
D41*
X158950000Y-70250000D03*
D42*
X159200000Y-84850000D03*
D43*
X149650000Y-70250000D03*
X149650000Y-85750000D03*
%TD*%
D15*
%TO.C,R4*%
X152990000Y-65500000D03*
X154010000Y-65500000D03*
%TD*%
D44*
%TO.C,R8*%
X173000000Y-90490000D03*
X173000000Y-91510000D03*
%TD*%
D25*
%TO.C,R10*%
X161000000Y-59520000D03*
X161000000Y-58500000D03*
%TD*%
M02*
