%TF.GenerationSoftware,KiCad,Pcbnew,9.0.2*%
%TF.CreationDate,2025-12-09T17:01:46+01:00*%
%TF.ProjectId,datalogger,64617461-6c6f-4676-9765-722e6b696361,rev?*%
%TF.SameCoordinates,Original*%
%TF.FileFunction,Legend,Top*%
%TF.FilePolarity,Positive*%
%FSLAX46Y46*%
G04 Gerber Fmt 4.6, Leading zero omitted, Abs format (unit mm)*
G04 Created by KiCad (PCBNEW 9.0.2) date 2025-12-09 17:01:46*
%MOMM*%
%LPD*%
G01*
G04 APERTURE LIST*
%ADD10C,0.150000*%
%ADD11C,0.254000*%
%ADD12C,0.120000*%
%ADD13C,0.200000*%
%ADD14C,0.127000*%
%ADD15C,0.100000*%
G04 APERTURE END LIST*
D10*
X151108333Y-62859580D02*
X151060714Y-62907200D01*
X151060714Y-62907200D02*
X150917857Y-62954819D01*
X150917857Y-62954819D02*
X150822619Y-62954819D01*
X150822619Y-62954819D02*
X150679762Y-62907200D01*
X150679762Y-62907200D02*
X150584524Y-62811961D01*
X150584524Y-62811961D02*
X150536905Y-62716723D01*
X150536905Y-62716723D02*
X150489286Y-62526247D01*
X150489286Y-62526247D02*
X150489286Y-62383390D01*
X150489286Y-62383390D02*
X150536905Y-62192914D01*
X150536905Y-62192914D02*
X150584524Y-62097676D01*
X150584524Y-62097676D02*
X150679762Y-62002438D01*
X150679762Y-62002438D02*
X150822619Y-61954819D01*
X150822619Y-61954819D02*
X150917857Y-61954819D01*
X150917857Y-61954819D02*
X151060714Y-62002438D01*
X151060714Y-62002438D02*
X151108333Y-62050057D01*
X152060714Y-62954819D02*
X151489286Y-62954819D01*
X151775000Y-62954819D02*
X151775000Y-61954819D01*
X151775000Y-61954819D02*
X151679762Y-62097676D01*
X151679762Y-62097676D02*
X151584524Y-62192914D01*
X151584524Y-62192914D02*
X151489286Y-62240533D01*
X148238095Y-68254819D02*
X148238095Y-69064342D01*
X148238095Y-69064342D02*
X148285714Y-69159580D01*
X148285714Y-69159580D02*
X148333333Y-69207200D01*
X148333333Y-69207200D02*
X148428571Y-69254819D01*
X148428571Y-69254819D02*
X148619047Y-69254819D01*
X148619047Y-69254819D02*
X148714285Y-69207200D01*
X148714285Y-69207200D02*
X148761904Y-69159580D01*
X148761904Y-69159580D02*
X148809523Y-69064342D01*
X148809523Y-69064342D02*
X148809523Y-68254819D01*
X149238095Y-68350057D02*
X149285714Y-68302438D01*
X149285714Y-68302438D02*
X149380952Y-68254819D01*
X149380952Y-68254819D02*
X149619047Y-68254819D01*
X149619047Y-68254819D02*
X149714285Y-68302438D01*
X149714285Y-68302438D02*
X149761904Y-68350057D01*
X149761904Y-68350057D02*
X149809523Y-68445295D01*
X149809523Y-68445295D02*
X149809523Y-68540533D01*
X149809523Y-68540533D02*
X149761904Y-68683390D01*
X149761904Y-68683390D02*
X149190476Y-69254819D01*
X149190476Y-69254819D02*
X149809523Y-69254819D01*
X164857142Y-73954819D02*
X164523809Y-73478628D01*
X164285714Y-73954819D02*
X164285714Y-72954819D01*
X164285714Y-72954819D02*
X164666666Y-72954819D01*
X164666666Y-72954819D02*
X164761904Y-73002438D01*
X164761904Y-73002438D02*
X164809523Y-73050057D01*
X164809523Y-73050057D02*
X164857142Y-73145295D01*
X164857142Y-73145295D02*
X164857142Y-73288152D01*
X164857142Y-73288152D02*
X164809523Y-73383390D01*
X164809523Y-73383390D02*
X164761904Y-73431009D01*
X164761904Y-73431009D02*
X164666666Y-73478628D01*
X164666666Y-73478628D02*
X164285714Y-73478628D01*
X165809523Y-73954819D02*
X165238095Y-73954819D01*
X165523809Y-73954819D02*
X165523809Y-72954819D01*
X165523809Y-72954819D02*
X165428571Y-73097676D01*
X165428571Y-73097676D02*
X165333333Y-73192914D01*
X165333333Y-73192914D02*
X165238095Y-73240533D01*
X166666666Y-72954819D02*
X166476190Y-72954819D01*
X166476190Y-72954819D02*
X166380952Y-73002438D01*
X166380952Y-73002438D02*
X166333333Y-73050057D01*
X166333333Y-73050057D02*
X166238095Y-73192914D01*
X166238095Y-73192914D02*
X166190476Y-73383390D01*
X166190476Y-73383390D02*
X166190476Y-73764342D01*
X166190476Y-73764342D02*
X166238095Y-73859580D01*
X166238095Y-73859580D02*
X166285714Y-73907200D01*
X166285714Y-73907200D02*
X166380952Y-73954819D01*
X166380952Y-73954819D02*
X166571428Y-73954819D01*
X166571428Y-73954819D02*
X166666666Y-73907200D01*
X166666666Y-73907200D02*
X166714285Y-73859580D01*
X166714285Y-73859580D02*
X166761904Y-73764342D01*
X166761904Y-73764342D02*
X166761904Y-73526247D01*
X166761904Y-73526247D02*
X166714285Y-73431009D01*
X166714285Y-73431009D02*
X166666666Y-73383390D01*
X166666666Y-73383390D02*
X166571428Y-73335771D01*
X166571428Y-73335771D02*
X166380952Y-73335771D01*
X166380952Y-73335771D02*
X166285714Y-73383390D01*
X166285714Y-73383390D02*
X166238095Y-73431009D01*
X166238095Y-73431009D02*
X166190476Y-73526247D01*
X164867142Y-79954819D02*
X164533809Y-79478628D01*
X164295714Y-79954819D02*
X164295714Y-78954819D01*
X164295714Y-78954819D02*
X164676666Y-78954819D01*
X164676666Y-78954819D02*
X164771904Y-79002438D01*
X164771904Y-79002438D02*
X164819523Y-79050057D01*
X164819523Y-79050057D02*
X164867142Y-79145295D01*
X164867142Y-79145295D02*
X164867142Y-79288152D01*
X164867142Y-79288152D02*
X164819523Y-79383390D01*
X164819523Y-79383390D02*
X164771904Y-79431009D01*
X164771904Y-79431009D02*
X164676666Y-79478628D01*
X164676666Y-79478628D02*
X164295714Y-79478628D01*
X165819523Y-79954819D02*
X165248095Y-79954819D01*
X165533809Y-79954819D02*
X165533809Y-78954819D01*
X165533809Y-78954819D02*
X165438571Y-79097676D01*
X165438571Y-79097676D02*
X165343333Y-79192914D01*
X165343333Y-79192914D02*
X165248095Y-79240533D01*
X166724285Y-78954819D02*
X166248095Y-78954819D01*
X166248095Y-78954819D02*
X166200476Y-79431009D01*
X166200476Y-79431009D02*
X166248095Y-79383390D01*
X166248095Y-79383390D02*
X166343333Y-79335771D01*
X166343333Y-79335771D02*
X166581428Y-79335771D01*
X166581428Y-79335771D02*
X166676666Y-79383390D01*
X166676666Y-79383390D02*
X166724285Y-79431009D01*
X166724285Y-79431009D02*
X166771904Y-79526247D01*
X166771904Y-79526247D02*
X166771904Y-79764342D01*
X166771904Y-79764342D02*
X166724285Y-79859580D01*
X166724285Y-79859580D02*
X166676666Y-79907200D01*
X166676666Y-79907200D02*
X166581428Y-79954819D01*
X166581428Y-79954819D02*
X166343333Y-79954819D01*
X166343333Y-79954819D02*
X166248095Y-79907200D01*
X166248095Y-79907200D02*
X166200476Y-79859580D01*
X147738095Y-97879819D02*
X147738095Y-96879819D01*
X147738095Y-97356009D02*
X148309523Y-97356009D01*
X148309523Y-97879819D02*
X148309523Y-96879819D01*
X149214285Y-97213152D02*
X149214285Y-97879819D01*
X148976190Y-96832200D02*
X148738095Y-97546485D01*
X148738095Y-97546485D02*
X149357142Y-97546485D01*
X170912270Y-105454819D02*
X170912270Y-104454819D01*
X170912270Y-104931009D02*
X171483698Y-104931009D01*
X171483698Y-105454819D02*
X171483698Y-104454819D01*
X171864651Y-104454819D02*
X172483698Y-104454819D01*
X172483698Y-104454819D02*
X172150365Y-104835771D01*
X172150365Y-104835771D02*
X172293222Y-104835771D01*
X172293222Y-104835771D02*
X172388460Y-104883390D01*
X172388460Y-104883390D02*
X172436079Y-104931009D01*
X172436079Y-104931009D02*
X172483698Y-105026247D01*
X172483698Y-105026247D02*
X172483698Y-105264342D01*
X172483698Y-105264342D02*
X172436079Y-105359580D01*
X172436079Y-105359580D02*
X172388460Y-105407200D01*
X172388460Y-105407200D02*
X172293222Y-105454819D01*
X172293222Y-105454819D02*
X172007508Y-105454819D01*
X172007508Y-105454819D02*
X171912270Y-105407200D01*
X171912270Y-105407200D02*
X171864651Y-105359580D01*
X147738095Y-49879819D02*
X147738095Y-48879819D01*
X147738095Y-49356009D02*
X148309523Y-49356009D01*
X148309523Y-49879819D02*
X148309523Y-48879819D01*
X148738095Y-48975057D02*
X148785714Y-48927438D01*
X148785714Y-48927438D02*
X148880952Y-48879819D01*
X148880952Y-48879819D02*
X149119047Y-48879819D01*
X149119047Y-48879819D02*
X149214285Y-48927438D01*
X149214285Y-48927438D02*
X149261904Y-48975057D01*
X149261904Y-48975057D02*
X149309523Y-49070295D01*
X149309523Y-49070295D02*
X149309523Y-49165533D01*
X149309523Y-49165533D02*
X149261904Y-49308390D01*
X149261904Y-49308390D02*
X148690476Y-49879819D01*
X148690476Y-49879819D02*
X149309523Y-49879819D01*
X170738095Y-49879819D02*
X170738095Y-48879819D01*
X170738095Y-49356009D02*
X171309523Y-49356009D01*
X171309523Y-49879819D02*
X171309523Y-48879819D01*
X172309523Y-49879819D02*
X171738095Y-49879819D01*
X172023809Y-49879819D02*
X172023809Y-48879819D01*
X172023809Y-48879819D02*
X171928571Y-49022676D01*
X171928571Y-49022676D02*
X171833333Y-49117914D01*
X171833333Y-49117914D02*
X171738095Y-49165533D01*
D11*
X161729047Y-64695270D02*
X161608095Y-64634794D01*
X161608095Y-64634794D02*
X161487142Y-64513842D01*
X161487142Y-64513842D02*
X161305714Y-64332413D01*
X161305714Y-64332413D02*
X161184761Y-64271937D01*
X161184761Y-64271937D02*
X161063809Y-64271937D01*
X161124285Y-64574318D02*
X161003333Y-64513842D01*
X161003333Y-64513842D02*
X160882380Y-64392889D01*
X160882380Y-64392889D02*
X160821904Y-64150984D01*
X160821904Y-64150984D02*
X160821904Y-63727651D01*
X160821904Y-63727651D02*
X160882380Y-63485746D01*
X160882380Y-63485746D02*
X161003333Y-63364794D01*
X161003333Y-63364794D02*
X161124285Y-63304318D01*
X161124285Y-63304318D02*
X161366190Y-63304318D01*
X161366190Y-63304318D02*
X161487142Y-63364794D01*
X161487142Y-63364794D02*
X161608095Y-63485746D01*
X161608095Y-63485746D02*
X161668571Y-63727651D01*
X161668571Y-63727651D02*
X161668571Y-64150984D01*
X161668571Y-64150984D02*
X161608095Y-64392889D01*
X161608095Y-64392889D02*
X161487142Y-64513842D01*
X161487142Y-64513842D02*
X161366190Y-64574318D01*
X161366190Y-64574318D02*
X161124285Y-64574318D01*
X162152380Y-63425270D02*
X162212856Y-63364794D01*
X162212856Y-63364794D02*
X162333809Y-63304318D01*
X162333809Y-63304318D02*
X162636190Y-63304318D01*
X162636190Y-63304318D02*
X162757142Y-63364794D01*
X162757142Y-63364794D02*
X162817618Y-63425270D01*
X162817618Y-63425270D02*
X162878095Y-63546222D01*
X162878095Y-63546222D02*
X162878095Y-63667175D01*
X162878095Y-63667175D02*
X162817618Y-63848603D01*
X162817618Y-63848603D02*
X162091904Y-64574318D01*
X162091904Y-64574318D02*
X162878095Y-64574318D01*
D10*
X164867142Y-78454819D02*
X164533809Y-77978628D01*
X164295714Y-78454819D02*
X164295714Y-77454819D01*
X164295714Y-77454819D02*
X164676666Y-77454819D01*
X164676666Y-77454819D02*
X164771904Y-77502438D01*
X164771904Y-77502438D02*
X164819523Y-77550057D01*
X164819523Y-77550057D02*
X164867142Y-77645295D01*
X164867142Y-77645295D02*
X164867142Y-77788152D01*
X164867142Y-77788152D02*
X164819523Y-77883390D01*
X164819523Y-77883390D02*
X164771904Y-77931009D01*
X164771904Y-77931009D02*
X164676666Y-77978628D01*
X164676666Y-77978628D02*
X164295714Y-77978628D01*
X165819523Y-78454819D02*
X165248095Y-78454819D01*
X165533809Y-78454819D02*
X165533809Y-77454819D01*
X165533809Y-77454819D02*
X165438571Y-77597676D01*
X165438571Y-77597676D02*
X165343333Y-77692914D01*
X165343333Y-77692914D02*
X165248095Y-77740533D01*
X166152857Y-77454819D02*
X166819523Y-77454819D01*
X166819523Y-77454819D02*
X166390952Y-78454819D01*
X159238095Y-93954819D02*
X159238095Y-94764342D01*
X159238095Y-94764342D02*
X159285714Y-94859580D01*
X159285714Y-94859580D02*
X159333333Y-94907200D01*
X159333333Y-94907200D02*
X159428571Y-94954819D01*
X159428571Y-94954819D02*
X159619047Y-94954819D01*
X159619047Y-94954819D02*
X159714285Y-94907200D01*
X159714285Y-94907200D02*
X159761904Y-94859580D01*
X159761904Y-94859580D02*
X159809523Y-94764342D01*
X159809523Y-94764342D02*
X159809523Y-93954819D01*
X160190476Y-93954819D02*
X160809523Y-93954819D01*
X160809523Y-93954819D02*
X160476190Y-94335771D01*
X160476190Y-94335771D02*
X160619047Y-94335771D01*
X160619047Y-94335771D02*
X160714285Y-94383390D01*
X160714285Y-94383390D02*
X160761904Y-94431009D01*
X160761904Y-94431009D02*
X160809523Y-94526247D01*
X160809523Y-94526247D02*
X160809523Y-94764342D01*
X160809523Y-94764342D02*
X160761904Y-94859580D01*
X160761904Y-94859580D02*
X160714285Y-94907200D01*
X160714285Y-94907200D02*
X160619047Y-94954819D01*
X160619047Y-94954819D02*
X160333333Y-94954819D01*
X160333333Y-94954819D02*
X160238095Y-94907200D01*
X160238095Y-94907200D02*
X160190476Y-94859580D01*
X169353333Y-57359580D02*
X169305714Y-57407200D01*
X169305714Y-57407200D02*
X169162857Y-57454819D01*
X169162857Y-57454819D02*
X169067619Y-57454819D01*
X169067619Y-57454819D02*
X168924762Y-57407200D01*
X168924762Y-57407200D02*
X168829524Y-57311961D01*
X168829524Y-57311961D02*
X168781905Y-57216723D01*
X168781905Y-57216723D02*
X168734286Y-57026247D01*
X168734286Y-57026247D02*
X168734286Y-56883390D01*
X168734286Y-56883390D02*
X168781905Y-56692914D01*
X168781905Y-56692914D02*
X168829524Y-56597676D01*
X168829524Y-56597676D02*
X168924762Y-56502438D01*
X168924762Y-56502438D02*
X169067619Y-56454819D01*
X169067619Y-56454819D02*
X169162857Y-56454819D01*
X169162857Y-56454819D02*
X169305714Y-56502438D01*
X169305714Y-56502438D02*
X169353333Y-56550057D01*
X170210476Y-56788152D02*
X170210476Y-57454819D01*
X169972381Y-56407200D02*
X169734286Y-57121485D01*
X169734286Y-57121485D02*
X170353333Y-57121485D01*
X169853333Y-99359580D02*
X169805714Y-99407200D01*
X169805714Y-99407200D02*
X169662857Y-99454819D01*
X169662857Y-99454819D02*
X169567619Y-99454819D01*
X169567619Y-99454819D02*
X169424762Y-99407200D01*
X169424762Y-99407200D02*
X169329524Y-99311961D01*
X169329524Y-99311961D02*
X169281905Y-99216723D01*
X169281905Y-99216723D02*
X169234286Y-99026247D01*
X169234286Y-99026247D02*
X169234286Y-98883390D01*
X169234286Y-98883390D02*
X169281905Y-98692914D01*
X169281905Y-98692914D02*
X169329524Y-98597676D01*
X169329524Y-98597676D02*
X169424762Y-98502438D01*
X169424762Y-98502438D02*
X169567619Y-98454819D01*
X169567619Y-98454819D02*
X169662857Y-98454819D01*
X169662857Y-98454819D02*
X169805714Y-98502438D01*
X169805714Y-98502438D02*
X169853333Y-98550057D01*
X170424762Y-98883390D02*
X170329524Y-98835771D01*
X170329524Y-98835771D02*
X170281905Y-98788152D01*
X170281905Y-98788152D02*
X170234286Y-98692914D01*
X170234286Y-98692914D02*
X170234286Y-98645295D01*
X170234286Y-98645295D02*
X170281905Y-98550057D01*
X170281905Y-98550057D02*
X170329524Y-98502438D01*
X170329524Y-98502438D02*
X170424762Y-98454819D01*
X170424762Y-98454819D02*
X170615238Y-98454819D01*
X170615238Y-98454819D02*
X170710476Y-98502438D01*
X170710476Y-98502438D02*
X170758095Y-98550057D01*
X170758095Y-98550057D02*
X170805714Y-98645295D01*
X170805714Y-98645295D02*
X170805714Y-98692914D01*
X170805714Y-98692914D02*
X170758095Y-98788152D01*
X170758095Y-98788152D02*
X170710476Y-98835771D01*
X170710476Y-98835771D02*
X170615238Y-98883390D01*
X170615238Y-98883390D02*
X170424762Y-98883390D01*
X170424762Y-98883390D02*
X170329524Y-98931009D01*
X170329524Y-98931009D02*
X170281905Y-98978628D01*
X170281905Y-98978628D02*
X170234286Y-99073866D01*
X170234286Y-99073866D02*
X170234286Y-99264342D01*
X170234286Y-99264342D02*
X170281905Y-99359580D01*
X170281905Y-99359580D02*
X170329524Y-99407200D01*
X170329524Y-99407200D02*
X170424762Y-99454819D01*
X170424762Y-99454819D02*
X170615238Y-99454819D01*
X170615238Y-99454819D02*
X170710476Y-99407200D01*
X170710476Y-99407200D02*
X170758095Y-99359580D01*
X170758095Y-99359580D02*
X170805714Y-99264342D01*
X170805714Y-99264342D02*
X170805714Y-99073866D01*
X170805714Y-99073866D02*
X170758095Y-98978628D01*
X170758095Y-98978628D02*
X170710476Y-98931009D01*
X170710476Y-98931009D02*
X170615238Y-98883390D01*
D11*
X158729047Y-64695270D02*
X158608095Y-64634794D01*
X158608095Y-64634794D02*
X158487142Y-64513842D01*
X158487142Y-64513842D02*
X158305714Y-64332413D01*
X158305714Y-64332413D02*
X158184761Y-64271937D01*
X158184761Y-64271937D02*
X158063809Y-64271937D01*
X158124285Y-64574318D02*
X158003333Y-64513842D01*
X158003333Y-64513842D02*
X157882380Y-64392889D01*
X157882380Y-64392889D02*
X157821904Y-64150984D01*
X157821904Y-64150984D02*
X157821904Y-63727651D01*
X157821904Y-63727651D02*
X157882380Y-63485746D01*
X157882380Y-63485746D02*
X158003333Y-63364794D01*
X158003333Y-63364794D02*
X158124285Y-63304318D01*
X158124285Y-63304318D02*
X158366190Y-63304318D01*
X158366190Y-63304318D02*
X158487142Y-63364794D01*
X158487142Y-63364794D02*
X158608095Y-63485746D01*
X158608095Y-63485746D02*
X158668571Y-63727651D01*
X158668571Y-63727651D02*
X158668571Y-64150984D01*
X158668571Y-64150984D02*
X158608095Y-64392889D01*
X158608095Y-64392889D02*
X158487142Y-64513842D01*
X158487142Y-64513842D02*
X158366190Y-64574318D01*
X158366190Y-64574318D02*
X158124285Y-64574318D01*
X159878095Y-64574318D02*
X159152380Y-64574318D01*
X159515237Y-64574318D02*
X159515237Y-63304318D01*
X159515237Y-63304318D02*
X159394285Y-63485746D01*
X159394285Y-63485746D02*
X159273333Y-63606699D01*
X159273333Y-63606699D02*
X159152380Y-63667175D01*
D10*
X164867142Y-76454819D02*
X164533809Y-75978628D01*
X164295714Y-76454819D02*
X164295714Y-75454819D01*
X164295714Y-75454819D02*
X164676666Y-75454819D01*
X164676666Y-75454819D02*
X164771904Y-75502438D01*
X164771904Y-75502438D02*
X164819523Y-75550057D01*
X164819523Y-75550057D02*
X164867142Y-75645295D01*
X164867142Y-75645295D02*
X164867142Y-75788152D01*
X164867142Y-75788152D02*
X164819523Y-75883390D01*
X164819523Y-75883390D02*
X164771904Y-75931009D01*
X164771904Y-75931009D02*
X164676666Y-75978628D01*
X164676666Y-75978628D02*
X164295714Y-75978628D01*
X165819523Y-76454819D02*
X165248095Y-76454819D01*
X165533809Y-76454819D02*
X165533809Y-75454819D01*
X165533809Y-75454819D02*
X165438571Y-75597676D01*
X165438571Y-75597676D02*
X165343333Y-75692914D01*
X165343333Y-75692914D02*
X165248095Y-75740533D01*
X166390952Y-75883390D02*
X166295714Y-75835771D01*
X166295714Y-75835771D02*
X166248095Y-75788152D01*
X166248095Y-75788152D02*
X166200476Y-75692914D01*
X166200476Y-75692914D02*
X166200476Y-75645295D01*
X166200476Y-75645295D02*
X166248095Y-75550057D01*
X166248095Y-75550057D02*
X166295714Y-75502438D01*
X166295714Y-75502438D02*
X166390952Y-75454819D01*
X166390952Y-75454819D02*
X166581428Y-75454819D01*
X166581428Y-75454819D02*
X166676666Y-75502438D01*
X166676666Y-75502438D02*
X166724285Y-75550057D01*
X166724285Y-75550057D02*
X166771904Y-75645295D01*
X166771904Y-75645295D02*
X166771904Y-75692914D01*
X166771904Y-75692914D02*
X166724285Y-75788152D01*
X166724285Y-75788152D02*
X166676666Y-75835771D01*
X166676666Y-75835771D02*
X166581428Y-75883390D01*
X166581428Y-75883390D02*
X166390952Y-75883390D01*
X166390952Y-75883390D02*
X166295714Y-75931009D01*
X166295714Y-75931009D02*
X166248095Y-75978628D01*
X166248095Y-75978628D02*
X166200476Y-76073866D01*
X166200476Y-76073866D02*
X166200476Y-76264342D01*
X166200476Y-76264342D02*
X166248095Y-76359580D01*
X166248095Y-76359580D02*
X166295714Y-76407200D01*
X166295714Y-76407200D02*
X166390952Y-76454819D01*
X166390952Y-76454819D02*
X166581428Y-76454819D01*
X166581428Y-76454819D02*
X166676666Y-76407200D01*
X166676666Y-76407200D02*
X166724285Y-76359580D01*
X166724285Y-76359580D02*
X166771904Y-76264342D01*
X166771904Y-76264342D02*
X166771904Y-76073866D01*
X166771904Y-76073866D02*
X166724285Y-75978628D01*
X166724285Y-75978628D02*
X166676666Y-75931009D01*
X166676666Y-75931009D02*
X166581428Y-75883390D01*
X168284819Y-91166666D02*
X167808628Y-91499999D01*
X168284819Y-91738094D02*
X167284819Y-91738094D01*
X167284819Y-91738094D02*
X167284819Y-91357142D01*
X167284819Y-91357142D02*
X167332438Y-91261904D01*
X167332438Y-91261904D02*
X167380057Y-91214285D01*
X167380057Y-91214285D02*
X167475295Y-91166666D01*
X167475295Y-91166666D02*
X167618152Y-91166666D01*
X167618152Y-91166666D02*
X167713390Y-91214285D01*
X167713390Y-91214285D02*
X167761009Y-91261904D01*
X167761009Y-91261904D02*
X167808628Y-91357142D01*
X167808628Y-91357142D02*
X167808628Y-91738094D01*
X168284819Y-90690475D02*
X168284819Y-90499999D01*
X168284819Y-90499999D02*
X168237200Y-90404761D01*
X168237200Y-90404761D02*
X168189580Y-90357142D01*
X168189580Y-90357142D02*
X168046723Y-90261904D01*
X168046723Y-90261904D02*
X167856247Y-90214285D01*
X167856247Y-90214285D02*
X167475295Y-90214285D01*
X167475295Y-90214285D02*
X167380057Y-90261904D01*
X167380057Y-90261904D02*
X167332438Y-90309523D01*
X167332438Y-90309523D02*
X167284819Y-90404761D01*
X167284819Y-90404761D02*
X167284819Y-90595237D01*
X167284819Y-90595237D02*
X167332438Y-90690475D01*
X167332438Y-90690475D02*
X167380057Y-90738094D01*
X167380057Y-90738094D02*
X167475295Y-90785713D01*
X167475295Y-90785713D02*
X167713390Y-90785713D01*
X167713390Y-90785713D02*
X167808628Y-90738094D01*
X167808628Y-90738094D02*
X167856247Y-90690475D01*
X167856247Y-90690475D02*
X167903866Y-90595237D01*
X167903866Y-90595237D02*
X167903866Y-90404761D01*
X167903866Y-90404761D02*
X167856247Y-90309523D01*
X167856247Y-90309523D02*
X167808628Y-90261904D01*
X167808628Y-90261904D02*
X167713390Y-90214285D01*
X171359580Y-89146666D02*
X171407200Y-89194285D01*
X171407200Y-89194285D02*
X171454819Y-89337142D01*
X171454819Y-89337142D02*
X171454819Y-89432380D01*
X171454819Y-89432380D02*
X171407200Y-89575237D01*
X171407200Y-89575237D02*
X171311961Y-89670475D01*
X171311961Y-89670475D02*
X171216723Y-89718094D01*
X171216723Y-89718094D02*
X171026247Y-89765713D01*
X171026247Y-89765713D02*
X170883390Y-89765713D01*
X170883390Y-89765713D02*
X170692914Y-89718094D01*
X170692914Y-89718094D02*
X170597676Y-89670475D01*
X170597676Y-89670475D02*
X170502438Y-89575237D01*
X170502438Y-89575237D02*
X170454819Y-89432380D01*
X170454819Y-89432380D02*
X170454819Y-89337142D01*
X170454819Y-89337142D02*
X170502438Y-89194285D01*
X170502438Y-89194285D02*
X170550057Y-89146666D01*
X170454819Y-88813332D02*
X170454819Y-88146666D01*
X170454819Y-88146666D02*
X171454819Y-88575237D01*
X166323333Y-65954819D02*
X165990000Y-65478628D01*
X165751905Y-65954819D02*
X165751905Y-64954819D01*
X165751905Y-64954819D02*
X166132857Y-64954819D01*
X166132857Y-64954819D02*
X166228095Y-65002438D01*
X166228095Y-65002438D02*
X166275714Y-65050057D01*
X166275714Y-65050057D02*
X166323333Y-65145295D01*
X166323333Y-65145295D02*
X166323333Y-65288152D01*
X166323333Y-65288152D02*
X166275714Y-65383390D01*
X166275714Y-65383390D02*
X166228095Y-65431009D01*
X166228095Y-65431009D02*
X166132857Y-65478628D01*
X166132857Y-65478628D02*
X165751905Y-65478628D01*
X167180476Y-64954819D02*
X166990000Y-64954819D01*
X166990000Y-64954819D02*
X166894762Y-65002438D01*
X166894762Y-65002438D02*
X166847143Y-65050057D01*
X166847143Y-65050057D02*
X166751905Y-65192914D01*
X166751905Y-65192914D02*
X166704286Y-65383390D01*
X166704286Y-65383390D02*
X166704286Y-65764342D01*
X166704286Y-65764342D02*
X166751905Y-65859580D01*
X166751905Y-65859580D02*
X166799524Y-65907200D01*
X166799524Y-65907200D02*
X166894762Y-65954819D01*
X166894762Y-65954819D02*
X167085238Y-65954819D01*
X167085238Y-65954819D02*
X167180476Y-65907200D01*
X167180476Y-65907200D02*
X167228095Y-65859580D01*
X167228095Y-65859580D02*
X167275714Y-65764342D01*
X167275714Y-65764342D02*
X167275714Y-65526247D01*
X167275714Y-65526247D02*
X167228095Y-65431009D01*
X167228095Y-65431009D02*
X167180476Y-65383390D01*
X167180476Y-65383390D02*
X167085238Y-65335771D01*
X167085238Y-65335771D02*
X166894762Y-65335771D01*
X166894762Y-65335771D02*
X166799524Y-65383390D01*
X166799524Y-65383390D02*
X166751905Y-65431009D01*
X166751905Y-65431009D02*
X166704286Y-65526247D01*
X165333333Y-59859580D02*
X165285714Y-59907200D01*
X165285714Y-59907200D02*
X165142857Y-59954819D01*
X165142857Y-59954819D02*
X165047619Y-59954819D01*
X165047619Y-59954819D02*
X164904762Y-59907200D01*
X164904762Y-59907200D02*
X164809524Y-59811961D01*
X164809524Y-59811961D02*
X164761905Y-59716723D01*
X164761905Y-59716723D02*
X164714286Y-59526247D01*
X164714286Y-59526247D02*
X164714286Y-59383390D01*
X164714286Y-59383390D02*
X164761905Y-59192914D01*
X164761905Y-59192914D02*
X164809524Y-59097676D01*
X164809524Y-59097676D02*
X164904762Y-59002438D01*
X164904762Y-59002438D02*
X165047619Y-58954819D01*
X165047619Y-58954819D02*
X165142857Y-58954819D01*
X165142857Y-58954819D02*
X165285714Y-59002438D01*
X165285714Y-59002438D02*
X165333333Y-59050057D01*
X165666667Y-58954819D02*
X166285714Y-58954819D01*
X166285714Y-58954819D02*
X165952381Y-59335771D01*
X165952381Y-59335771D02*
X166095238Y-59335771D01*
X166095238Y-59335771D02*
X166190476Y-59383390D01*
X166190476Y-59383390D02*
X166238095Y-59431009D01*
X166238095Y-59431009D02*
X166285714Y-59526247D01*
X166285714Y-59526247D02*
X166285714Y-59764342D01*
X166285714Y-59764342D02*
X166238095Y-59859580D01*
X166238095Y-59859580D02*
X166190476Y-59907200D01*
X166190476Y-59907200D02*
X166095238Y-59954819D01*
X166095238Y-59954819D02*
X165809524Y-59954819D01*
X165809524Y-59954819D02*
X165714286Y-59907200D01*
X165714286Y-59907200D02*
X165666667Y-59859580D01*
X153954819Y-58666666D02*
X153478628Y-58999999D01*
X153954819Y-59238094D02*
X152954819Y-59238094D01*
X152954819Y-59238094D02*
X152954819Y-58857142D01*
X152954819Y-58857142D02*
X153002438Y-58761904D01*
X153002438Y-58761904D02*
X153050057Y-58714285D01*
X153050057Y-58714285D02*
X153145295Y-58666666D01*
X153145295Y-58666666D02*
X153288152Y-58666666D01*
X153288152Y-58666666D02*
X153383390Y-58714285D01*
X153383390Y-58714285D02*
X153431009Y-58761904D01*
X153431009Y-58761904D02*
X153478628Y-58857142D01*
X153478628Y-58857142D02*
X153478628Y-59238094D01*
X153954819Y-57714285D02*
X153954819Y-58285713D01*
X153954819Y-57999999D02*
X152954819Y-57999999D01*
X152954819Y-57999999D02*
X153097676Y-58095237D01*
X153097676Y-58095237D02*
X153192914Y-58190475D01*
X153192914Y-58190475D02*
X153240533Y-58285713D01*
X170238095Y-61454819D02*
X170238095Y-62264342D01*
X170238095Y-62264342D02*
X170285714Y-62359580D01*
X170285714Y-62359580D02*
X170333333Y-62407200D01*
X170333333Y-62407200D02*
X170428571Y-62454819D01*
X170428571Y-62454819D02*
X170619047Y-62454819D01*
X170619047Y-62454819D02*
X170714285Y-62407200D01*
X170714285Y-62407200D02*
X170761904Y-62359580D01*
X170761904Y-62359580D02*
X170809523Y-62264342D01*
X170809523Y-62264342D02*
X170809523Y-61454819D01*
X171714285Y-61788152D02*
X171714285Y-62454819D01*
X171476190Y-61407200D02*
X171238095Y-62121485D01*
X171238095Y-62121485D02*
X171857142Y-62121485D01*
X168359580Y-104391666D02*
X168407200Y-104439285D01*
X168407200Y-104439285D02*
X168454819Y-104582142D01*
X168454819Y-104582142D02*
X168454819Y-104677380D01*
X168454819Y-104677380D02*
X168407200Y-104820237D01*
X168407200Y-104820237D02*
X168311961Y-104915475D01*
X168311961Y-104915475D02*
X168216723Y-104963094D01*
X168216723Y-104963094D02*
X168026247Y-105010713D01*
X168026247Y-105010713D02*
X167883390Y-105010713D01*
X167883390Y-105010713D02*
X167692914Y-104963094D01*
X167692914Y-104963094D02*
X167597676Y-104915475D01*
X167597676Y-104915475D02*
X167502438Y-104820237D01*
X167502438Y-104820237D02*
X167454819Y-104677380D01*
X167454819Y-104677380D02*
X167454819Y-104582142D01*
X167454819Y-104582142D02*
X167502438Y-104439285D01*
X167502438Y-104439285D02*
X167550057Y-104391666D01*
X167454819Y-103486904D02*
X167454819Y-103963094D01*
X167454819Y-103963094D02*
X167931009Y-104010713D01*
X167931009Y-104010713D02*
X167883390Y-103963094D01*
X167883390Y-103963094D02*
X167835771Y-103867856D01*
X167835771Y-103867856D02*
X167835771Y-103629761D01*
X167835771Y-103629761D02*
X167883390Y-103534523D01*
X167883390Y-103534523D02*
X167931009Y-103486904D01*
X167931009Y-103486904D02*
X168026247Y-103439285D01*
X168026247Y-103439285D02*
X168264342Y-103439285D01*
X168264342Y-103439285D02*
X168359580Y-103486904D01*
X168359580Y-103486904D02*
X168407200Y-103534523D01*
X168407200Y-103534523D02*
X168454819Y-103629761D01*
X168454819Y-103629761D02*
X168454819Y-103867856D01*
X168454819Y-103867856D02*
X168407200Y-103963094D01*
X168407200Y-103963094D02*
X168359580Y-104010713D01*
X156954819Y-62738094D02*
X155954819Y-62738094D01*
X155954819Y-62738094D02*
X155954819Y-62499999D01*
X155954819Y-62499999D02*
X156002438Y-62357142D01*
X156002438Y-62357142D02*
X156097676Y-62261904D01*
X156097676Y-62261904D02*
X156192914Y-62214285D01*
X156192914Y-62214285D02*
X156383390Y-62166666D01*
X156383390Y-62166666D02*
X156526247Y-62166666D01*
X156526247Y-62166666D02*
X156716723Y-62214285D01*
X156716723Y-62214285D02*
X156811961Y-62261904D01*
X156811961Y-62261904D02*
X156907200Y-62357142D01*
X156907200Y-62357142D02*
X156954819Y-62499999D01*
X156954819Y-62499999D02*
X156954819Y-62738094D01*
X155954819Y-61833332D02*
X155954819Y-61214285D01*
X155954819Y-61214285D02*
X156335771Y-61547618D01*
X156335771Y-61547618D02*
X156335771Y-61404761D01*
X156335771Y-61404761D02*
X156383390Y-61309523D01*
X156383390Y-61309523D02*
X156431009Y-61261904D01*
X156431009Y-61261904D02*
X156526247Y-61214285D01*
X156526247Y-61214285D02*
X156764342Y-61214285D01*
X156764342Y-61214285D02*
X156859580Y-61261904D01*
X156859580Y-61261904D02*
X156907200Y-61309523D01*
X156907200Y-61309523D02*
X156954819Y-61404761D01*
X156954819Y-61404761D02*
X156954819Y-61690475D01*
X156954819Y-61690475D02*
X156907200Y-61785713D01*
X156907200Y-61785713D02*
X156859580Y-61833332D01*
X155333333Y-67454819D02*
X155000000Y-66978628D01*
X154761905Y-67454819D02*
X154761905Y-66454819D01*
X154761905Y-66454819D02*
X155142857Y-66454819D01*
X155142857Y-66454819D02*
X155238095Y-66502438D01*
X155238095Y-66502438D02*
X155285714Y-66550057D01*
X155285714Y-66550057D02*
X155333333Y-66645295D01*
X155333333Y-66645295D02*
X155333333Y-66788152D01*
X155333333Y-66788152D02*
X155285714Y-66883390D01*
X155285714Y-66883390D02*
X155238095Y-66931009D01*
X155238095Y-66931009D02*
X155142857Y-66978628D01*
X155142857Y-66978628D02*
X154761905Y-66978628D01*
X156238095Y-66454819D02*
X155761905Y-66454819D01*
X155761905Y-66454819D02*
X155714286Y-66931009D01*
X155714286Y-66931009D02*
X155761905Y-66883390D01*
X155761905Y-66883390D02*
X155857143Y-66835771D01*
X155857143Y-66835771D02*
X156095238Y-66835771D01*
X156095238Y-66835771D02*
X156190476Y-66883390D01*
X156190476Y-66883390D02*
X156238095Y-66931009D01*
X156238095Y-66931009D02*
X156285714Y-67026247D01*
X156285714Y-67026247D02*
X156285714Y-67264342D01*
X156285714Y-67264342D02*
X156238095Y-67359580D01*
X156238095Y-67359580D02*
X156190476Y-67407200D01*
X156190476Y-67407200D02*
X156095238Y-67454819D01*
X156095238Y-67454819D02*
X155857143Y-67454819D01*
X155857143Y-67454819D02*
X155761905Y-67407200D01*
X155761905Y-67407200D02*
X155714286Y-67359580D01*
X160166666Y-52454819D02*
X160166666Y-53169104D01*
X160166666Y-53169104D02*
X160119047Y-53311961D01*
X160119047Y-53311961D02*
X160023809Y-53407200D01*
X160023809Y-53407200D02*
X159880952Y-53454819D01*
X159880952Y-53454819D02*
X159785714Y-53454819D01*
X160595238Y-52550057D02*
X160642857Y-52502438D01*
X160642857Y-52502438D02*
X160738095Y-52454819D01*
X160738095Y-52454819D02*
X160976190Y-52454819D01*
X160976190Y-52454819D02*
X161071428Y-52502438D01*
X161071428Y-52502438D02*
X161119047Y-52550057D01*
X161119047Y-52550057D02*
X161166666Y-52645295D01*
X161166666Y-52645295D02*
X161166666Y-52740533D01*
X161166666Y-52740533D02*
X161119047Y-52883390D01*
X161119047Y-52883390D02*
X160547619Y-53454819D01*
X160547619Y-53454819D02*
X161166666Y-53454819D01*
X166333333Y-67454819D02*
X166000000Y-66978628D01*
X165761905Y-67454819D02*
X165761905Y-66454819D01*
X165761905Y-66454819D02*
X166142857Y-66454819D01*
X166142857Y-66454819D02*
X166238095Y-66502438D01*
X166238095Y-66502438D02*
X166285714Y-66550057D01*
X166285714Y-66550057D02*
X166333333Y-66645295D01*
X166333333Y-66645295D02*
X166333333Y-66788152D01*
X166333333Y-66788152D02*
X166285714Y-66883390D01*
X166285714Y-66883390D02*
X166238095Y-66931009D01*
X166238095Y-66931009D02*
X166142857Y-66978628D01*
X166142857Y-66978628D02*
X165761905Y-66978628D01*
X166666667Y-66454819D02*
X167333333Y-66454819D01*
X167333333Y-66454819D02*
X166904762Y-67454819D01*
X158454819Y-62738094D02*
X157454819Y-62738094D01*
X157454819Y-62738094D02*
X157454819Y-62499999D01*
X157454819Y-62499999D02*
X157502438Y-62357142D01*
X157502438Y-62357142D02*
X157597676Y-62261904D01*
X157597676Y-62261904D02*
X157692914Y-62214285D01*
X157692914Y-62214285D02*
X157883390Y-62166666D01*
X157883390Y-62166666D02*
X158026247Y-62166666D01*
X158026247Y-62166666D02*
X158216723Y-62214285D01*
X158216723Y-62214285D02*
X158311961Y-62261904D01*
X158311961Y-62261904D02*
X158407200Y-62357142D01*
X158407200Y-62357142D02*
X158454819Y-62499999D01*
X158454819Y-62499999D02*
X158454819Y-62738094D01*
X158454819Y-61214285D02*
X158454819Y-61785713D01*
X158454819Y-61499999D02*
X157454819Y-61499999D01*
X157454819Y-61499999D02*
X157597676Y-61595237D01*
X157597676Y-61595237D02*
X157692914Y-61690475D01*
X157692914Y-61690475D02*
X157740533Y-61785713D01*
X164857142Y-75359580D02*
X164809523Y-75407200D01*
X164809523Y-75407200D02*
X164666666Y-75454819D01*
X164666666Y-75454819D02*
X164571428Y-75454819D01*
X164571428Y-75454819D02*
X164428571Y-75407200D01*
X164428571Y-75407200D02*
X164333333Y-75311961D01*
X164333333Y-75311961D02*
X164285714Y-75216723D01*
X164285714Y-75216723D02*
X164238095Y-75026247D01*
X164238095Y-75026247D02*
X164238095Y-74883390D01*
X164238095Y-74883390D02*
X164285714Y-74692914D01*
X164285714Y-74692914D02*
X164333333Y-74597676D01*
X164333333Y-74597676D02*
X164428571Y-74502438D01*
X164428571Y-74502438D02*
X164571428Y-74454819D01*
X164571428Y-74454819D02*
X164666666Y-74454819D01*
X164666666Y-74454819D02*
X164809523Y-74502438D01*
X164809523Y-74502438D02*
X164857142Y-74550057D01*
X165809523Y-75454819D02*
X165238095Y-75454819D01*
X165523809Y-75454819D02*
X165523809Y-74454819D01*
X165523809Y-74454819D02*
X165428571Y-74597676D01*
X165428571Y-74597676D02*
X165333333Y-74692914D01*
X165333333Y-74692914D02*
X165238095Y-74740533D01*
X166428571Y-74454819D02*
X166523809Y-74454819D01*
X166523809Y-74454819D02*
X166619047Y-74502438D01*
X166619047Y-74502438D02*
X166666666Y-74550057D01*
X166666666Y-74550057D02*
X166714285Y-74645295D01*
X166714285Y-74645295D02*
X166761904Y-74835771D01*
X166761904Y-74835771D02*
X166761904Y-75073866D01*
X166761904Y-75073866D02*
X166714285Y-75264342D01*
X166714285Y-75264342D02*
X166666666Y-75359580D01*
X166666666Y-75359580D02*
X166619047Y-75407200D01*
X166619047Y-75407200D02*
X166523809Y-75454819D01*
X166523809Y-75454819D02*
X166428571Y-75454819D01*
X166428571Y-75454819D02*
X166333333Y-75407200D01*
X166333333Y-75407200D02*
X166285714Y-75359580D01*
X166285714Y-75359580D02*
X166238095Y-75264342D01*
X166238095Y-75264342D02*
X166190476Y-75073866D01*
X166190476Y-75073866D02*
X166190476Y-74835771D01*
X166190476Y-74835771D02*
X166238095Y-74645295D01*
X166238095Y-74645295D02*
X166285714Y-74550057D01*
X166285714Y-74550057D02*
X166333333Y-74502438D01*
X166333333Y-74502438D02*
X166428571Y-74454819D01*
X172359580Y-89146666D02*
X172407200Y-89194285D01*
X172407200Y-89194285D02*
X172454819Y-89337142D01*
X172454819Y-89337142D02*
X172454819Y-89432380D01*
X172454819Y-89432380D02*
X172407200Y-89575237D01*
X172407200Y-89575237D02*
X172311961Y-89670475D01*
X172311961Y-89670475D02*
X172216723Y-89718094D01*
X172216723Y-89718094D02*
X172026247Y-89765713D01*
X172026247Y-89765713D02*
X171883390Y-89765713D01*
X171883390Y-89765713D02*
X171692914Y-89718094D01*
X171692914Y-89718094D02*
X171597676Y-89670475D01*
X171597676Y-89670475D02*
X171502438Y-89575237D01*
X171502438Y-89575237D02*
X171454819Y-89432380D01*
X171454819Y-89432380D02*
X171454819Y-89337142D01*
X171454819Y-89337142D02*
X171502438Y-89194285D01*
X171502438Y-89194285D02*
X171550057Y-89146666D01*
X171454819Y-88289523D02*
X171454819Y-88479999D01*
X171454819Y-88479999D02*
X171502438Y-88575237D01*
X171502438Y-88575237D02*
X171550057Y-88622856D01*
X171550057Y-88622856D02*
X171692914Y-88718094D01*
X171692914Y-88718094D02*
X171883390Y-88765713D01*
X171883390Y-88765713D02*
X172264342Y-88765713D01*
X172264342Y-88765713D02*
X172359580Y-88718094D01*
X172359580Y-88718094D02*
X172407200Y-88670475D01*
X172407200Y-88670475D02*
X172454819Y-88575237D01*
X172454819Y-88575237D02*
X172454819Y-88384761D01*
X172454819Y-88384761D02*
X172407200Y-88289523D01*
X172407200Y-88289523D02*
X172359580Y-88241904D01*
X172359580Y-88241904D02*
X172264342Y-88194285D01*
X172264342Y-88194285D02*
X172026247Y-88194285D01*
X172026247Y-88194285D02*
X171931009Y-88241904D01*
X171931009Y-88241904D02*
X171883390Y-88289523D01*
X171883390Y-88289523D02*
X171835771Y-88384761D01*
X171835771Y-88384761D02*
X171835771Y-88575237D01*
X171835771Y-88575237D02*
X171883390Y-88670475D01*
X171883390Y-88670475D02*
X171931009Y-88718094D01*
X171931009Y-88718094D02*
X172026247Y-88765713D01*
X148323333Y-59454819D02*
X147990000Y-58978628D01*
X147751905Y-59454819D02*
X147751905Y-58454819D01*
X147751905Y-58454819D02*
X148132857Y-58454819D01*
X148132857Y-58454819D02*
X148228095Y-58502438D01*
X148228095Y-58502438D02*
X148275714Y-58550057D01*
X148275714Y-58550057D02*
X148323333Y-58645295D01*
X148323333Y-58645295D02*
X148323333Y-58788152D01*
X148323333Y-58788152D02*
X148275714Y-58883390D01*
X148275714Y-58883390D02*
X148228095Y-58931009D01*
X148228095Y-58931009D02*
X148132857Y-58978628D01*
X148132857Y-58978628D02*
X147751905Y-58978628D01*
X148656667Y-58454819D02*
X149275714Y-58454819D01*
X149275714Y-58454819D02*
X148942381Y-58835771D01*
X148942381Y-58835771D02*
X149085238Y-58835771D01*
X149085238Y-58835771D02*
X149180476Y-58883390D01*
X149180476Y-58883390D02*
X149228095Y-58931009D01*
X149228095Y-58931009D02*
X149275714Y-59026247D01*
X149275714Y-59026247D02*
X149275714Y-59264342D01*
X149275714Y-59264342D02*
X149228095Y-59359580D01*
X149228095Y-59359580D02*
X149180476Y-59407200D01*
X149180476Y-59407200D02*
X149085238Y-59454819D01*
X149085238Y-59454819D02*
X148799524Y-59454819D01*
X148799524Y-59454819D02*
X148704286Y-59407200D01*
X148704286Y-59407200D02*
X148656667Y-59359580D01*
X169954819Y-89142857D02*
X169478628Y-89476190D01*
X169954819Y-89714285D02*
X168954819Y-89714285D01*
X168954819Y-89714285D02*
X168954819Y-89333333D01*
X168954819Y-89333333D02*
X169002438Y-89238095D01*
X169002438Y-89238095D02*
X169050057Y-89190476D01*
X169050057Y-89190476D02*
X169145295Y-89142857D01*
X169145295Y-89142857D02*
X169288152Y-89142857D01*
X169288152Y-89142857D02*
X169383390Y-89190476D01*
X169383390Y-89190476D02*
X169431009Y-89238095D01*
X169431009Y-89238095D02*
X169478628Y-89333333D01*
X169478628Y-89333333D02*
X169478628Y-89714285D01*
X169954819Y-88190476D02*
X169954819Y-88761904D01*
X169954819Y-88476190D02*
X168954819Y-88476190D01*
X168954819Y-88476190D02*
X169097676Y-88571428D01*
X169097676Y-88571428D02*
X169192914Y-88666666D01*
X169192914Y-88666666D02*
X169240533Y-88761904D01*
X169288152Y-87333333D02*
X169954819Y-87333333D01*
X168907200Y-87571428D02*
X169621485Y-87809523D01*
X169621485Y-87809523D02*
X169621485Y-87190476D01*
X155353333Y-64359580D02*
X155305714Y-64407200D01*
X155305714Y-64407200D02*
X155162857Y-64454819D01*
X155162857Y-64454819D02*
X155067619Y-64454819D01*
X155067619Y-64454819D02*
X154924762Y-64407200D01*
X154924762Y-64407200D02*
X154829524Y-64311961D01*
X154829524Y-64311961D02*
X154781905Y-64216723D01*
X154781905Y-64216723D02*
X154734286Y-64026247D01*
X154734286Y-64026247D02*
X154734286Y-63883390D01*
X154734286Y-63883390D02*
X154781905Y-63692914D01*
X154781905Y-63692914D02*
X154829524Y-63597676D01*
X154829524Y-63597676D02*
X154924762Y-63502438D01*
X154924762Y-63502438D02*
X155067619Y-63454819D01*
X155067619Y-63454819D02*
X155162857Y-63454819D01*
X155162857Y-63454819D02*
X155305714Y-63502438D01*
X155305714Y-63502438D02*
X155353333Y-63550057D01*
X155734286Y-63550057D02*
X155781905Y-63502438D01*
X155781905Y-63502438D02*
X155877143Y-63454819D01*
X155877143Y-63454819D02*
X156115238Y-63454819D01*
X156115238Y-63454819D02*
X156210476Y-63502438D01*
X156210476Y-63502438D02*
X156258095Y-63550057D01*
X156258095Y-63550057D02*
X156305714Y-63645295D01*
X156305714Y-63645295D02*
X156305714Y-63740533D01*
X156305714Y-63740533D02*
X156258095Y-63883390D01*
X156258095Y-63883390D02*
X155686667Y-64454819D01*
X155686667Y-64454819D02*
X156305714Y-64454819D01*
X150333333Y-59454819D02*
X150000000Y-58978628D01*
X149761905Y-59454819D02*
X149761905Y-58454819D01*
X149761905Y-58454819D02*
X150142857Y-58454819D01*
X150142857Y-58454819D02*
X150238095Y-58502438D01*
X150238095Y-58502438D02*
X150285714Y-58550057D01*
X150285714Y-58550057D02*
X150333333Y-58645295D01*
X150333333Y-58645295D02*
X150333333Y-58788152D01*
X150333333Y-58788152D02*
X150285714Y-58883390D01*
X150285714Y-58883390D02*
X150238095Y-58931009D01*
X150238095Y-58931009D02*
X150142857Y-58978628D01*
X150142857Y-58978628D02*
X149761905Y-58978628D01*
X150714286Y-58550057D02*
X150761905Y-58502438D01*
X150761905Y-58502438D02*
X150857143Y-58454819D01*
X150857143Y-58454819D02*
X151095238Y-58454819D01*
X151095238Y-58454819D02*
X151190476Y-58502438D01*
X151190476Y-58502438D02*
X151238095Y-58550057D01*
X151238095Y-58550057D02*
X151285714Y-58645295D01*
X151285714Y-58645295D02*
X151285714Y-58740533D01*
X151285714Y-58740533D02*
X151238095Y-58883390D01*
X151238095Y-58883390D02*
X150666667Y-59454819D01*
X150666667Y-59454819D02*
X151285714Y-59454819D01*
X159954819Y-62738094D02*
X158954819Y-62738094D01*
X158954819Y-62738094D02*
X158954819Y-62499999D01*
X158954819Y-62499999D02*
X159002438Y-62357142D01*
X159002438Y-62357142D02*
X159097676Y-62261904D01*
X159097676Y-62261904D02*
X159192914Y-62214285D01*
X159192914Y-62214285D02*
X159383390Y-62166666D01*
X159383390Y-62166666D02*
X159526247Y-62166666D01*
X159526247Y-62166666D02*
X159716723Y-62214285D01*
X159716723Y-62214285D02*
X159811961Y-62261904D01*
X159811961Y-62261904D02*
X159907200Y-62357142D01*
X159907200Y-62357142D02*
X159954819Y-62499999D01*
X159954819Y-62499999D02*
X159954819Y-62738094D01*
X159050057Y-61785713D02*
X159002438Y-61738094D01*
X159002438Y-61738094D02*
X158954819Y-61642856D01*
X158954819Y-61642856D02*
X158954819Y-61404761D01*
X158954819Y-61404761D02*
X159002438Y-61309523D01*
X159002438Y-61309523D02*
X159050057Y-61261904D01*
X159050057Y-61261904D02*
X159145295Y-61214285D01*
X159145295Y-61214285D02*
X159240533Y-61214285D01*
X159240533Y-61214285D02*
X159383390Y-61261904D01*
X159383390Y-61261904D02*
X159954819Y-61833332D01*
X159954819Y-61833332D02*
X159954819Y-61214285D01*
X170723095Y-95419819D02*
X170723095Y-96229342D01*
X170723095Y-96229342D02*
X170770714Y-96324580D01*
X170770714Y-96324580D02*
X170818333Y-96372200D01*
X170818333Y-96372200D02*
X170913571Y-96419819D01*
X170913571Y-96419819D02*
X171104047Y-96419819D01*
X171104047Y-96419819D02*
X171199285Y-96372200D01*
X171199285Y-96372200D02*
X171246904Y-96324580D01*
X171246904Y-96324580D02*
X171294523Y-96229342D01*
X171294523Y-96229342D02*
X171294523Y-95419819D01*
X172294523Y-96419819D02*
X171723095Y-96419819D01*
X172008809Y-96419819D02*
X172008809Y-95419819D01*
X172008809Y-95419819D02*
X171913571Y-95562676D01*
X171913571Y-95562676D02*
X171818333Y-95657914D01*
X171818333Y-95657914D02*
X171723095Y-95705533D01*
X160357142Y-88954819D02*
X160023809Y-88478628D01*
X159785714Y-88954819D02*
X159785714Y-87954819D01*
X159785714Y-87954819D02*
X160166666Y-87954819D01*
X160166666Y-87954819D02*
X160261904Y-88002438D01*
X160261904Y-88002438D02*
X160309523Y-88050057D01*
X160309523Y-88050057D02*
X160357142Y-88145295D01*
X160357142Y-88145295D02*
X160357142Y-88288152D01*
X160357142Y-88288152D02*
X160309523Y-88383390D01*
X160309523Y-88383390D02*
X160261904Y-88431009D01*
X160261904Y-88431009D02*
X160166666Y-88478628D01*
X160166666Y-88478628D02*
X159785714Y-88478628D01*
X161309523Y-88954819D02*
X160738095Y-88954819D01*
X161023809Y-88954819D02*
X161023809Y-87954819D01*
X161023809Y-87954819D02*
X160928571Y-88097676D01*
X160928571Y-88097676D02*
X160833333Y-88192914D01*
X160833333Y-88192914D02*
X160738095Y-88240533D01*
X162261904Y-88954819D02*
X161690476Y-88954819D01*
X161976190Y-88954819D02*
X161976190Y-87954819D01*
X161976190Y-87954819D02*
X161880952Y-88097676D01*
X161880952Y-88097676D02*
X161785714Y-88192914D01*
X161785714Y-88192914D02*
X161690476Y-88240533D01*
X157357142Y-88954819D02*
X157023809Y-88478628D01*
X156785714Y-88954819D02*
X156785714Y-87954819D01*
X156785714Y-87954819D02*
X157166666Y-87954819D01*
X157166666Y-87954819D02*
X157261904Y-88002438D01*
X157261904Y-88002438D02*
X157309523Y-88050057D01*
X157309523Y-88050057D02*
X157357142Y-88145295D01*
X157357142Y-88145295D02*
X157357142Y-88288152D01*
X157357142Y-88288152D02*
X157309523Y-88383390D01*
X157309523Y-88383390D02*
X157261904Y-88431009D01*
X157261904Y-88431009D02*
X157166666Y-88478628D01*
X157166666Y-88478628D02*
X156785714Y-88478628D01*
X158309523Y-88954819D02*
X157738095Y-88954819D01*
X158023809Y-88954819D02*
X158023809Y-87954819D01*
X158023809Y-87954819D02*
X157928571Y-88097676D01*
X157928571Y-88097676D02*
X157833333Y-88192914D01*
X157833333Y-88192914D02*
X157738095Y-88240533D01*
X158642857Y-87954819D02*
X159261904Y-87954819D01*
X159261904Y-87954819D02*
X158928571Y-88335771D01*
X158928571Y-88335771D02*
X159071428Y-88335771D01*
X159071428Y-88335771D02*
X159166666Y-88383390D01*
X159166666Y-88383390D02*
X159214285Y-88431009D01*
X159214285Y-88431009D02*
X159261904Y-88526247D01*
X159261904Y-88526247D02*
X159261904Y-88764342D01*
X159261904Y-88764342D02*
X159214285Y-88859580D01*
X159214285Y-88859580D02*
X159166666Y-88907200D01*
X159166666Y-88907200D02*
X159071428Y-88954819D01*
X159071428Y-88954819D02*
X158785714Y-88954819D01*
X158785714Y-88954819D02*
X158690476Y-88907200D01*
X158690476Y-88907200D02*
X158642857Y-88859580D01*
X168333333Y-95929580D02*
X168285714Y-95977200D01*
X168285714Y-95977200D02*
X168142857Y-96024819D01*
X168142857Y-96024819D02*
X168047619Y-96024819D01*
X168047619Y-96024819D02*
X167904762Y-95977200D01*
X167904762Y-95977200D02*
X167809524Y-95881961D01*
X167809524Y-95881961D02*
X167761905Y-95786723D01*
X167761905Y-95786723D02*
X167714286Y-95596247D01*
X167714286Y-95596247D02*
X167714286Y-95453390D01*
X167714286Y-95453390D02*
X167761905Y-95262914D01*
X167761905Y-95262914D02*
X167809524Y-95167676D01*
X167809524Y-95167676D02*
X167904762Y-95072438D01*
X167904762Y-95072438D02*
X168047619Y-95024819D01*
X168047619Y-95024819D02*
X168142857Y-95024819D01*
X168142857Y-95024819D02*
X168285714Y-95072438D01*
X168285714Y-95072438D02*
X168333333Y-95120057D01*
X168809524Y-96024819D02*
X169000000Y-96024819D01*
X169000000Y-96024819D02*
X169095238Y-95977200D01*
X169095238Y-95977200D02*
X169142857Y-95929580D01*
X169142857Y-95929580D02*
X169238095Y-95786723D01*
X169238095Y-95786723D02*
X169285714Y-95596247D01*
X169285714Y-95596247D02*
X169285714Y-95215295D01*
X169285714Y-95215295D02*
X169238095Y-95120057D01*
X169238095Y-95120057D02*
X169190476Y-95072438D01*
X169190476Y-95072438D02*
X169095238Y-95024819D01*
X169095238Y-95024819D02*
X168904762Y-95024819D01*
X168904762Y-95024819D02*
X168809524Y-95072438D01*
X168809524Y-95072438D02*
X168761905Y-95120057D01*
X168761905Y-95120057D02*
X168714286Y-95215295D01*
X168714286Y-95215295D02*
X168714286Y-95453390D01*
X168714286Y-95453390D02*
X168761905Y-95548628D01*
X168761905Y-95548628D02*
X168809524Y-95596247D01*
X168809524Y-95596247D02*
X168904762Y-95643866D01*
X168904762Y-95643866D02*
X169095238Y-95643866D01*
X169095238Y-95643866D02*
X169190476Y-95596247D01*
X169190476Y-95596247D02*
X169238095Y-95548628D01*
X169238095Y-95548628D02*
X169285714Y-95453390D01*
X152264819Y-78333333D02*
X152979104Y-78333333D01*
X152979104Y-78333333D02*
X153121961Y-78380952D01*
X153121961Y-78380952D02*
X153217200Y-78476190D01*
X153217200Y-78476190D02*
X153264819Y-78619047D01*
X153264819Y-78619047D02*
X153264819Y-78714285D01*
X153264819Y-77333333D02*
X153264819Y-77904761D01*
X153264819Y-77619047D02*
X152264819Y-77619047D01*
X152264819Y-77619047D02*
X152407676Y-77714285D01*
X152407676Y-77714285D02*
X152502914Y-77809523D01*
X152502914Y-77809523D02*
X152550533Y-77904761D01*
X155333333Y-65954819D02*
X155000000Y-65478628D01*
X154761905Y-65954819D02*
X154761905Y-64954819D01*
X154761905Y-64954819D02*
X155142857Y-64954819D01*
X155142857Y-64954819D02*
X155238095Y-65002438D01*
X155238095Y-65002438D02*
X155285714Y-65050057D01*
X155285714Y-65050057D02*
X155333333Y-65145295D01*
X155333333Y-65145295D02*
X155333333Y-65288152D01*
X155333333Y-65288152D02*
X155285714Y-65383390D01*
X155285714Y-65383390D02*
X155238095Y-65431009D01*
X155238095Y-65431009D02*
X155142857Y-65478628D01*
X155142857Y-65478628D02*
X154761905Y-65478628D01*
X156190476Y-65288152D02*
X156190476Y-65954819D01*
X155952381Y-64907200D02*
X155714286Y-65621485D01*
X155714286Y-65621485D02*
X156333333Y-65621485D01*
X174624819Y-91166666D02*
X174148628Y-91499999D01*
X174624819Y-91738094D02*
X173624819Y-91738094D01*
X173624819Y-91738094D02*
X173624819Y-91357142D01*
X173624819Y-91357142D02*
X173672438Y-91261904D01*
X173672438Y-91261904D02*
X173720057Y-91214285D01*
X173720057Y-91214285D02*
X173815295Y-91166666D01*
X173815295Y-91166666D02*
X173958152Y-91166666D01*
X173958152Y-91166666D02*
X174053390Y-91214285D01*
X174053390Y-91214285D02*
X174101009Y-91261904D01*
X174101009Y-91261904D02*
X174148628Y-91357142D01*
X174148628Y-91357142D02*
X174148628Y-91738094D01*
X174053390Y-90595237D02*
X174005771Y-90690475D01*
X174005771Y-90690475D02*
X173958152Y-90738094D01*
X173958152Y-90738094D02*
X173862914Y-90785713D01*
X173862914Y-90785713D02*
X173815295Y-90785713D01*
X173815295Y-90785713D02*
X173720057Y-90738094D01*
X173720057Y-90738094D02*
X173672438Y-90690475D01*
X173672438Y-90690475D02*
X173624819Y-90595237D01*
X173624819Y-90595237D02*
X173624819Y-90404761D01*
X173624819Y-90404761D02*
X173672438Y-90309523D01*
X173672438Y-90309523D02*
X173720057Y-90261904D01*
X173720057Y-90261904D02*
X173815295Y-90214285D01*
X173815295Y-90214285D02*
X173862914Y-90214285D01*
X173862914Y-90214285D02*
X173958152Y-90261904D01*
X173958152Y-90261904D02*
X174005771Y-90309523D01*
X174005771Y-90309523D02*
X174053390Y-90404761D01*
X174053390Y-90404761D02*
X174053390Y-90595237D01*
X174053390Y-90595237D02*
X174101009Y-90690475D01*
X174101009Y-90690475D02*
X174148628Y-90738094D01*
X174148628Y-90738094D02*
X174243866Y-90785713D01*
X174243866Y-90785713D02*
X174434342Y-90785713D01*
X174434342Y-90785713D02*
X174529580Y-90738094D01*
X174529580Y-90738094D02*
X174577200Y-90690475D01*
X174577200Y-90690475D02*
X174624819Y-90595237D01*
X174624819Y-90595237D02*
X174624819Y-90404761D01*
X174624819Y-90404761D02*
X174577200Y-90309523D01*
X174577200Y-90309523D02*
X174529580Y-90261904D01*
X174529580Y-90261904D02*
X174434342Y-90214285D01*
X174434342Y-90214285D02*
X174243866Y-90214285D01*
X174243866Y-90214285D02*
X174148628Y-90261904D01*
X174148628Y-90261904D02*
X174101009Y-90309523D01*
X174101009Y-90309523D02*
X174053390Y-90404761D01*
X161454819Y-62142857D02*
X160978628Y-62476190D01*
X161454819Y-62714285D02*
X160454819Y-62714285D01*
X160454819Y-62714285D02*
X160454819Y-62333333D01*
X160454819Y-62333333D02*
X160502438Y-62238095D01*
X160502438Y-62238095D02*
X160550057Y-62190476D01*
X160550057Y-62190476D02*
X160645295Y-62142857D01*
X160645295Y-62142857D02*
X160788152Y-62142857D01*
X160788152Y-62142857D02*
X160883390Y-62190476D01*
X160883390Y-62190476D02*
X160931009Y-62238095D01*
X160931009Y-62238095D02*
X160978628Y-62333333D01*
X160978628Y-62333333D02*
X160978628Y-62714285D01*
X161454819Y-61190476D02*
X161454819Y-61761904D01*
X161454819Y-61476190D02*
X160454819Y-61476190D01*
X160454819Y-61476190D02*
X160597676Y-61571428D01*
X160597676Y-61571428D02*
X160692914Y-61666666D01*
X160692914Y-61666666D02*
X160740533Y-61761904D01*
X160454819Y-60571428D02*
X160454819Y-60476190D01*
X160454819Y-60476190D02*
X160502438Y-60380952D01*
X160502438Y-60380952D02*
X160550057Y-60333333D01*
X160550057Y-60333333D02*
X160645295Y-60285714D01*
X160645295Y-60285714D02*
X160835771Y-60238095D01*
X160835771Y-60238095D02*
X161073866Y-60238095D01*
X161073866Y-60238095D02*
X161264342Y-60285714D01*
X161264342Y-60285714D02*
X161359580Y-60333333D01*
X161359580Y-60333333D02*
X161407200Y-60380952D01*
X161407200Y-60380952D02*
X161454819Y-60476190D01*
X161454819Y-60476190D02*
X161454819Y-60571428D01*
X161454819Y-60571428D02*
X161407200Y-60666666D01*
X161407200Y-60666666D02*
X161359580Y-60714285D01*
X161359580Y-60714285D02*
X161264342Y-60761904D01*
X161264342Y-60761904D02*
X161073866Y-60809523D01*
X161073866Y-60809523D02*
X160835771Y-60809523D01*
X160835771Y-60809523D02*
X160645295Y-60761904D01*
X160645295Y-60761904D02*
X160550057Y-60714285D01*
X160550057Y-60714285D02*
X160502438Y-60666666D01*
X160502438Y-60666666D02*
X160454819Y-60571428D01*
D12*
%TO.C,C1*%
X154140580Y-63010000D02*
X153859420Y-63010000D01*
X154140580Y-61990000D02*
X153859420Y-61990000D01*
%TO.C,U2*%
X151850000Y-67940000D02*
X151370000Y-67940000D01*
X151610000Y-67610000D01*
X151850000Y-67940000D01*
G36*
X151850000Y-67940000D02*
G01*
X151370000Y-67940000D01*
X151610000Y-67610000D01*
X151850000Y-67940000D01*
G37*
X151610000Y-62390000D02*
X151610000Y-63115000D01*
X150885000Y-62390000D02*
X151610000Y-62390000D01*
X147115000Y-62390000D02*
X146390000Y-62390000D01*
X146390000Y-62390000D02*
X146390000Y-63115000D01*
X151610000Y-66885000D02*
X151610000Y-67370000D01*
X150885000Y-67610000D02*
X151310000Y-67610000D01*
X147115000Y-67610000D02*
X146390000Y-67610000D01*
X146390000Y-67610000D02*
X146390000Y-66885000D01*
%TO.C,R16*%
X162856359Y-73120000D02*
X163163641Y-73120000D01*
X162856359Y-73880000D02*
X163163641Y-73880000D01*
%TO.C,R15*%
X163173641Y-79380000D02*
X162866359Y-79380000D01*
X163173641Y-78620000D02*
X162866359Y-78620000D01*
D13*
%TO.C,Q2*%
X160700000Y-68625000D02*
X160700000Y-67575000D01*
X160800000Y-66875000D02*
X162900000Y-66875000D01*
X160800000Y-67225000D02*
X160800000Y-66875000D01*
X162900000Y-66875000D02*
X162900000Y-67225000D01*
X162900000Y-67225000D02*
X160800000Y-67225000D01*
D12*
%TO.C,R17*%
X163163641Y-78380000D02*
X162856359Y-78380000D01*
X163163641Y-77620000D02*
X162856359Y-77620000D01*
D14*
%TO.C,U3*%
X153500000Y-109200000D02*
X153500000Y-103820000D01*
X166700000Y-103820000D02*
X166700000Y-109200000D01*
X166700000Y-109200000D02*
X153500000Y-109200000D01*
D13*
X167450000Y-102200000D02*
G75*
G02*
X167250000Y-102200000I-100000J0D01*
G01*
X167250000Y-102200000D02*
G75*
G02*
X167450000Y-102200000I100000J0D01*
G01*
D12*
%TO.C,C4*%
X171412164Y-56640000D02*
X171627836Y-56640000D01*
X171412164Y-57360000D02*
X171627836Y-57360000D01*
%TO.C,C8*%
X167892164Y-99140000D02*
X168107836Y-99140000D01*
X167892164Y-99860000D02*
X168107836Y-99860000D01*
D13*
%TO.C,Q1*%
X157700000Y-68625000D02*
X157700000Y-67575000D01*
X157800000Y-66875000D02*
X159900000Y-66875000D01*
X157800000Y-67225000D02*
X157800000Y-66875000D01*
X159900000Y-66875000D02*
X159900000Y-67225000D01*
X159900000Y-67225000D02*
X157800000Y-67225000D01*
D12*
%TO.C,R18*%
X163163641Y-76380000D02*
X162856359Y-76380000D01*
X163163641Y-75620000D02*
X162856359Y-75620000D01*
%TO.C,R9*%
X168620000Y-91153641D02*
X168620000Y-90846359D01*
X169380000Y-91153641D02*
X169380000Y-90846359D01*
%TO.C,C7*%
X170640000Y-91107836D02*
X170640000Y-90892164D01*
X171360000Y-91107836D02*
X171360000Y-90892164D01*
%TO.C,R6*%
X164346359Y-65120000D02*
X164653641Y-65120000D01*
X164346359Y-65880000D02*
X164653641Y-65880000D01*
%TO.C,C3*%
X165392164Y-57640000D02*
X165607836Y-57640000D01*
X165392164Y-58360000D02*
X165607836Y-58360000D01*
%TO.C,R1*%
X154620000Y-59143641D02*
X154620000Y-58836359D01*
X155380000Y-59143641D02*
X155380000Y-58836359D01*
D14*
%TO.C,U4*%
X174250000Y-63750000D02*
X172945000Y-63750000D01*
X174250000Y-60250000D02*
X174250000Y-63750000D01*
X167750000Y-63750000D02*
X169055000Y-63750000D01*
X167750000Y-60250000D02*
X167750000Y-63750000D01*
D13*
X173400000Y-57400000D02*
G75*
G02*
X173200000Y-57400000I-100000J0D01*
G01*
X173200000Y-57400000D02*
G75*
G02*
X173400000Y-57400000I100000J0D01*
G01*
D12*
%TO.C,C5*%
X167490000Y-101640580D02*
X167490000Y-101359420D01*
X168510000Y-101640580D02*
X168510000Y-101359420D01*
%TO.C,D3*%
X156090000Y-58195000D02*
X156090000Y-59235000D01*
X156910000Y-58195000D02*
X156910000Y-59235000D01*
X156910000Y-59235000D02*
X156090000Y-59235000D01*
%TO.C,R5*%
X153643641Y-66880000D02*
X153336359Y-66880000D01*
X153643641Y-66120000D02*
X153336359Y-66120000D01*
D13*
%TO.C,J2*%
X164970000Y-50550000D02*
X164970000Y-49750000D01*
X156030000Y-50550000D02*
X156030000Y-49750000D01*
X164970000Y-54750000D02*
X164970000Y-53150000D01*
X156030000Y-54750000D02*
X156030000Y-53150000D01*
X163800000Y-57650000D02*
G75*
G02*
X163600000Y-57650000I-100000J0D01*
G01*
X163600000Y-57650000D02*
G75*
G02*
X163800000Y-57650000I100000J0D01*
G01*
D12*
%TO.C,R7*%
X164346359Y-66120000D02*
X164653641Y-66120000D01*
X164346359Y-66880000D02*
X164653641Y-66880000D01*
%TO.C,D1*%
X157590000Y-58195000D02*
X157590000Y-59235000D01*
X158410000Y-58195000D02*
X158410000Y-59235000D01*
X158410000Y-59235000D02*
X157590000Y-59235000D01*
%TO.C,C10*%
X162872164Y-74640000D02*
X163087836Y-74640000D01*
X162872164Y-75360000D02*
X163087836Y-75360000D01*
%TO.C,C6*%
X171640000Y-91107836D02*
X171640000Y-90892164D01*
X172360000Y-91107836D02*
X172360000Y-90892164D01*
%TO.C,R3*%
X148643641Y-60880000D02*
X148336359Y-60880000D01*
X148643641Y-60120000D02*
X148336359Y-60120000D01*
%TO.C,R14*%
X169620000Y-91153641D02*
X169620000Y-90846359D01*
X170380000Y-91153641D02*
X170380000Y-90846359D01*
%TO.C,C2*%
X153607836Y-64360000D02*
X153392164Y-64360000D01*
X153607836Y-63640000D02*
X153392164Y-63640000D01*
%TO.C,R2*%
X150663641Y-60880000D02*
X150356359Y-60880000D01*
X150663641Y-60120000D02*
X150356359Y-60120000D01*
%TO.C,D2*%
X159090000Y-58195000D02*
X159090000Y-59235000D01*
X159910000Y-58195000D02*
X159910000Y-59235000D01*
X159910000Y-59235000D02*
X159090000Y-59235000D01*
D15*
%TO.C,U1*%
X170150000Y-94850000D02*
X170150000Y-94700000D01*
X170300000Y-94850000D02*
X170150000Y-94850000D01*
X170150000Y-92150000D02*
X170150000Y-92300000D01*
X170150000Y-92150000D02*
X170300000Y-92150000D01*
X172850000Y-92150000D02*
X172850000Y-92300000D01*
X172850000Y-92140000D02*
X172700000Y-92140000D01*
D12*
X172850000Y-95210000D02*
X172850000Y-94850000D01*
X173210000Y-94850000D01*
X172850000Y-95210000D01*
G36*
X172850000Y-95210000D02*
G01*
X172850000Y-94850000D01*
X173210000Y-94850000D01*
X172850000Y-95210000D01*
G37*
%TO.C,R11*%
X159620000Y-90653641D02*
X159620000Y-90346359D01*
X160380000Y-90653641D02*
X160380000Y-90346359D01*
%TO.C,R13*%
X158120000Y-90663641D02*
X158120000Y-90356359D01*
X158880000Y-90663641D02*
X158880000Y-90356359D01*
%TO.C,C9*%
X168359420Y-96490000D02*
X168640580Y-96490000D01*
X168359420Y-97510000D02*
X168640580Y-97510000D01*
D14*
%TO.C,J1*%
X148230000Y-85425000D02*
X145250000Y-85425000D01*
X158130000Y-85425000D02*
X151070000Y-85425000D01*
X159750000Y-83730000D02*
X159750000Y-80920000D01*
X145250000Y-70575000D02*
X145250000Y-85425000D01*
X148230000Y-70575000D02*
X145250000Y-70575000D01*
X157730000Y-70575000D02*
X151070000Y-70575000D01*
D13*
X161700000Y-80250000D02*
G75*
G02*
X161500000Y-80250000I-100000J0D01*
G01*
X161500000Y-80250000D02*
G75*
G02*
X161700000Y-80250000I100000J0D01*
G01*
D12*
%TO.C,R4*%
X153346359Y-65120000D02*
X153653641Y-65120000D01*
X153346359Y-65880000D02*
X153653641Y-65880000D01*
%TO.C,R8*%
X173380000Y-90846359D02*
X173380000Y-91153641D01*
X172620000Y-90846359D02*
X172620000Y-91153641D01*
%TO.C,R10*%
X160620000Y-59163641D02*
X160620000Y-58856359D01*
X161380000Y-59163641D02*
X161380000Y-58856359D01*
%TD*%
M02*
